#usda 1.0
(
    defaultPrim = "World"
    metersPerUnit = 0.001
    upAxis = "Z"
    customLayerData = {
        string authority = "shadow_only_non_actuating"
        string evidenceClass = "SIMULATED"
        string provenance = "public_teaching_reconstruction"
        string sourceBoundary = "not_raw_campaign_geometry"
    }
)

# Newly generated public teaching geometry.
# Uses only disclosed shape-class names; no campaign USD, customer geometry,
# controller path, model parameter, or private sidecar is copied here.
def Xform "World"
{
    def Xform "CNCCell"
    {
        custom string sage:embodiment = "cnc"
        custom string sage:learningPath = "surrogate_training_path"
        custom string sage:provenance = "public_teaching_reconstruction"
        double3 xformOp:translate = (-105, 0, 0)
        uniform token[] xformOpOrder = ["xformOp:translate"]

        def Mesh "SeededStock"
        {
            custom int sage:deterministicSeed = 274120
            custom string sage:evidenceClass = "SIMULATED"
            custom string sage:materialClass = "aluminum_6061"
            int[] faceVertexCounts = [8, 8, 4, 4, 4, 4, 4, 4, 4, 4]
            int[] faceVertexIndices = [7, 6, 5, 4, 3, 2, 1, 0, 8, 9, 10, 11, 12, 13, 14, 15, 0, 1, 9, 8, 1, 2, 10, 9, 2, 3, 11, 10, 3, 4, 12, 11, 4, 5, 13, 12, 5, 6, 14, 13, 6, 7, 15, 14, 7, 0, 8, 15]
            point3f[] points = [(-64.9823, -52.5, 0), (64.0406, -52.5, 0), (76, -40.5406, 0), (76, 38.4984, 0), (61.9984, 52.5, 0), (-65.1374, 52.5, 0), (-76, 41.6374, 0), (-76, -41.4823, 0), (-64.9823, -52.5, 20), (64.0406, -52.5, 20), (76, -40.5406, 20), (76, 38.4984, 20), (61.9984, 52.5, 20), (-65.1374, 52.5, 20), (-76, 41.6374, 20), (-76, -41.4823, 20)]
            color3f[] primvars:displayColor = [(0.31, 0.46, 0.52)]
            uniform token subdivisionScheme = "none"
        }

        def BasisCurves "PublicFeature_1"
        {
            custom string sage:shapeClass = "rounded_rectangle_pocket"
            int[] curveVertexCounts = [32]
            point3f[] points = [(33.6446, 15.2269, 20.4), (33.4669, 17.6837, 20.4), (32.747, 20.0393, 20.4), (31.521, 22.1757, 20.4), (29.8502, 23.9858, 20.4), (27.8186, 25.3786, 20.4), (25.528, 26.2845, 20.4), (23.0933, 26.658, 20.4), (-42.8539, 29.2973, 20.4), (-45.3107, 29.1196, 20.4), (-47.6664, 28.3996, 20.4), (-49.8028, 27.1736, 20.4), (-51.6128, 25.5029, 20.4), (-53.0057, 23.4713, 20.4), (-53.9115, 21.1807, 20.4), (-54.285, 18.7459, 20.4), (-55.6446, -15.2269, 20.4), (-55.4669, -17.6837, 20.4), (-54.747, -20.0393, 20.4), (-53.521, -22.1757, 20.4), (-51.8502, -23.9858, 20.4), (-49.8186, -25.3786, 20.4), (-47.528, -26.2845, 20.4), (-45.0933, -26.658, 20.4), (20.8539, -29.2973, 20.4), (23.3107, -29.1196, 20.4), (25.6664, -28.3996, 20.4), (27.8028, -27.1736, 20.4), (29.6128, -25.5029, 20.4), (31.0057, -23.4713, 20.4), (31.9115, -21.1807, 20.4), (32.285, -18.7459, 20.4)]
            color3f[] primvars:displayColor = [(0.10, 0.84, 0.81)]
            uniform token type = "linear"
            uniform token wrap = "periodic"
            float[] widths = [1.2]
        }

        def BasisCurves "PublicFeature_2"
        {
            custom string sage:shapeClass = "circle_pocket"
            int[] curveVertexCounts = [40]
            point3f[] points = [(59, -28, 20.4), (58.8892, -26.5921, 20.4), (58.5595, -25.2188, 20.4), (58.0191, -23.9141, 20.4), (57.2812, -22.7099, 20.4), (56.364, -21.636, 20.4), (55.2901, -20.7188, 20.4), (54.0859, -19.9809, 20.4), (52.7812, -19.4405, 20.4), (51.4079, -19.1108, 20.4), (50, -19, 20.4), (48.5921, -19.1108, 20.4), (47.2188, -19.4405, 20.4), (45.9141, -19.9809, 20.4), (44.7099, -20.7188, 20.4), (43.636, -21.636, 20.4), (42.7188, -22.7099, 20.4), (41.9809, -23.9141, 20.4), (41.4405, -25.2188, 20.4), (41.1108, -26.5921, 20.4), (41, -28, 20.4), (41.1108, -29.4079, 20.4), (41.4405, -30.7812, 20.4), (41.9809, -32.0859, 20.4), (42.7188, -33.2901, 20.4), (43.636, -34.364, 20.4), (44.7099, -35.2812, 20.4), (45.9141, -36.0191, 20.4), (47.2188, -36.5595, 20.4), (48.5921, -36.8892, 20.4), (50, -37, 20.4), (51.4079, -36.8892, 20.4), (52.7812, -36.5595, 20.4), (54.0859, -36.0191, 20.4), (55.2901, -35.2812, 20.4), (56.364, -34.364, 20.4), (57.2812, -33.2901, 20.4), (58.0191, -32.0859, 20.4), (58.5595, -30.7812, 20.4), (58.8892, -29.4079, 20.4)]
            color3f[] primvars:displayColor = [(0.10, 0.84, 0.81)]
            uniform token type = "linear"
            uniform token wrap = "periodic"
            float[] widths = [1.2]
        }

        def BasisCurves "PublicFeature_3"
        {
            custom string sage:shapeClass = "slot_pocket"
            int[] curveVertexCounts = [32]
            point3f[] points = [(63.7253, 25.9565, 20.4), (63.8088, 27.1853, 20.4), (63.6167, 28.4018, 20.4), (63.1587, 29.5451, 20.4), (62.4578, 30.5578, 20.4), (61.5492, 31.3892, 20.4), (60.4783, 31.9975, 20.4), (59.2989, 32.3523, 20.4), (36.6705, 36.47, 20.4), (35.4417, 36.5534, 20.4), (34.2251, 36.3613, 20.4), (33.0818, 35.9034, 20.4), (32.0691, 35.2025, 20.4), (31.2378, 34.2938, 20.4), (30.6294, 33.2229, 20.4), (30.2747, 32.0435, 20.4), (30.2747, 32.0435, 20.4), (30.1912, 30.8147, 20.4), (30.3833, 29.5982, 20.4), (30.8413, 28.4549, 20.4), (31.5422, 27.4422, 20.4), (32.4508, 26.6108, 20.4), (33.5217, 26.0025, 20.4), (34.7011, 25.6477, 20.4), (57.3295, 21.53, 20.4), (58.5583, 21.4466, 20.4), (59.7749, 21.6387, 20.4), (60.9182, 22.0966, 20.4), (61.9309, 22.7975, 20.4), (62.7622, 23.7062, 20.4), (63.3706, 24.7771, 20.4), (63.7253, 25.9565, 20.4)]
            color3f[] primvars:displayColor = [(0.10, 0.84, 0.81)]
            uniform token type = "linear"
            uniform token wrap = "periodic"
            float[] widths = [1.2]
        }
    }

    def Xform "ROSRobotCell"
    {
        custom string sage:embodiment = "ros"
        custom string sage:learningPath = "shadow_optimization_path"
        custom string sage:provenance = "public_teaching_reconstruction"
        double3 xformOp:translate = (105, 0, 0)
        uniform token[] xformOpOrder = ["xformOp:translate"]

        def Mesh "SeededStock"
        {
            custom int sage:deterministicSeed = 274121
            custom string sage:evidenceClass = "SIMULATED"
            custom string sage:materialClass = "mild_steel"
            int[] faceVertexCounts = [8, 8, 4, 4, 4, 4, 4, 4, 4, 4]
            int[] faceVertexIndices = [7, 6, 5, 4, 3, 2, 1, 0, 8, 9, 10, 11, 12, 13, 14, 15, 0, 1, 9, 8, 1, 2, 10, 9, 2, 3, 11, 10, 3, 4, 12, 11, 4, 5, 13, 12, 5, 6, 14, 13, 6, 7, 15, 14, 7, 0, 8, 15]
            point3f[] points = [(-56.4804, -48, 0), (50.7643, -48, 0), (67, -31.7643, 0), (67, 33.3483, 0), (52.3483, 48, 0), (-53.4796, 48, 0), (-67, 34.4796, 0), (-67, -37.4804, 0), (-56.4804, -48, 22), (50.7643, -48, 22), (67, -31.7643, 22), (67, 33.3483, 22), (52.3483, 48, 22), (-53.4796, 48, 22), (-67, 34.4796, 22), (-67, -37.4804, 22)]
            color3f[] primvars:displayColor = [(0.31, 0.46, 0.52)]
            uniform token subdivisionScheme = "none"
        }

        def BasisCurves "PublicFeature_1"
        {
            custom string sage:shapeClass = "rounded_rectangle_pocket"
            int[] curveVertexCounts = [32]
            point3f[] points = [(41.3754, 7.1581, 22.4), (40.5501, 9.7153, 22.4), (39.1764, 12.0248, 22.4), (37.3232, 13.9707, 22.4), (35.0835, 15.4554, 22.4), (32.5695, 16.4046, 22.4), (29.9074, 16.7705, 22.4), (27.2306, 16.5349, 22.4), (-11.9721, 8.5881, 22.4), (-14.5293, 7.7627, 22.4), (-16.8388, 6.389, 22.4), (-18.7847, 4.5358, 22.4), (-20.2694, 2.2961, 22.4), (-21.2185, -0.2178, 22.4), (-21.5845, -2.88, 22.4), (-21.3488, -5.5568, 22.4), (-17.3754, -25.1581, 22.4), (-16.5501, -27.7153, 22.4), (-15.1764, -30.0248, 22.4), (-13.3232, -31.9707, 22.4), (-11.0835, -33.4554, 22.4), (-8.5695, -34.4046, 22.4), (-5.9074, -34.7705, 22.4), (-3.2306, -34.5349, 22.4), (35.9721, -26.5881, 22.4), (38.5293, -25.7627, 22.4), (40.8388, -24.389, 22.4), (42.7847, -22.5358, 22.4), (44.2694, -20.2961, 22.4), (45.2185, -17.7822, 22.4), (45.5845, -15.12, 22.4), (45.3488, -12.4432, 22.4)]
            color3f[] primvars:displayColor = [(0.10, 0.84, 0.81)]
            uniform token type = "linear"
            uniform token wrap = "periodic"
            float[] widths = [1.2]
        }

        def BasisCurves "PublicFeature_2"
        {
            custom string sage:shapeClass = "slot_pocket"
            int[] curveVertexCounts = [32]
            point3f[] points = [(-16.8782, 18.4261, 22.4), (-16.5487, 19.7286, 22.4), (-16.5172, 21.0718, 22.4), (-16.7855, 22.3884, 22.4), (-17.34, 23.6122, 22.4), (-18.1528, 24.682, 22.4), (-19.1834, 25.544, 22.4), (-20.38, 26.1551, 22.4), (-49.3928, 37.0756, 22.4), (-50.6953, 37.4052, 22.4), (-52.0385, 37.4366, 22.4), (-53.355, 37.1684, 22.4), (-54.5788, 36.6139, 22.4), (-55.6486, 35.801, 22.4), (-56.5107, 34.7704, 22.4), (-57.1218, 33.5739, 22.4), (-57.1218, 33.5739, 22.4), (-57.4513, 32.2714, 22.4), (-57.4828, 30.9282, 22.4), (-57.2145, 29.6116, 22.4), (-56.66, 28.3878, 22.4), (-55.8472, 27.318, 22.4), (-54.8166, 26.456, 22.4), (-53.62, 25.8449, 22.4), (-24.6072, 14.9244, 22.4), (-23.3047, 14.5948, 22.4), (-21.9615, 14.5634, 22.4), (-20.645, 14.8316, 22.4), (-19.4212, 15.3861, 22.4), (-18.3514, 16.199, 22.4), (-17.4893, 17.2296, 22.4), (-16.8782, 18.4261, 22.4)]
            color3f[] primvars:displayColor = [(0.10, 0.84, 0.81)]
            uniform token type = "linear"
            uniform token wrap = "periodic"
            float[] widths = [1.2]
        }

        def BasisCurves "PublicFeature_3"
        {
            custom string sage:shapeClass = "circle_pocket"
            int[] curveVertexCounts = [40]
            point3f[] points = [(-35, -23, 22.4), (-35.1231, -21.4357, 22.4), (-35.4894, -19.9098, 22.4), (-36.0899, -18.4601, 22.4), (-36.9098, -17.1221, 22.4), (-37.9289, -15.9289, 22.4), (-39.1221, -14.9098, 22.4), (-40.4601, -14.0899, 22.4), (-41.9098, -13.4894, 22.4), (-43.4357, -13.1231, 22.4), (-45, -13, 22.4), (-46.5643, -13.1231, 22.4), (-48.0902, -13.4894, 22.4), (-49.5399, -14.0899, 22.4), (-50.8779, -14.9098, 22.4), (-52.0711, -15.9289, 22.4), (-53.0902, -17.1221, 22.4), (-53.9101, -18.4601, 22.4), (-54.5106, -19.9098, 22.4), (-54.8769, -21.4357, 22.4), (-55, -23, 22.4), (-54.8769, -24.5643, 22.4), (-54.5106, -26.0902, 22.4), (-53.9101, -27.5399, 22.4), (-53.0902, -28.8779, 22.4), (-52.0711, -30.0711, 22.4), (-50.8779, -31.0902, 22.4), (-49.5399, -31.9101, 22.4), (-48.0902, -32.5106, 22.4), (-46.5643, -32.8769, 22.4), (-45, -33, 22.4), (-43.4357, -32.8769, 22.4), (-41.9098, -32.5106, 22.4), (-40.4601, -31.9101, 22.4), (-39.1221, -31.0902, 22.4), (-37.9289, -30.0711, 22.4), (-36.9098, -28.8779, 22.4), (-36.0899, -27.5399, 22.4), (-35.4894, -26.0902, 22.4), (-35.1231, -24.5643, 22.4)]
            color3f[] primvars:displayColor = [(0.10, 0.84, 0.81)]
            uniform token type = "linear"
            uniform token wrap = "periodic"
            float[] widths = [1.2]
        }
    }
}
